inDegrees=no
num_controls=7
num_derivatives=13
num_iterations=126
num_multipliers=7
num_parameters=0
num_slacks=7
num_states=26
objective=0.469776
objective_accelerations=0.063518
objective_balance=0.002108
objective_effort=0.020177
objective_height=0.374442
objective_ligament=0.009531
solver_duration=1774.659714
status=Solve_Succeeded
success=true
DataType=double
version=3
OpenSimVersion=4.5
endheader
time	/jointset/ground_pelvis/pelvis_tilt/value	/jointset/ground_pelvis/pelvis_tx/value	/jointset/ground_pelvis/pelvis_ty/value	/jointset/hip_l/hip_flexion_l/value	/jointset/hip_l/hip_adduction_l/value	/jointset/hip_l/hip_rotation_l/value	/jointset/back/lumbar_extension/value	/jointset/patellofemoral_l/patellar_flexion_l/value	/jointset/knee_l/knee_flexion_l/value	/jointset/knee_l/knee_adduction_l/value	/jointset/knee_l/knee_rotation_l/value	/jointset/ankle_l/ankle_angle_l/value	/jointset/subtalar_l/subtalar_angle_l/value	/jointset/ground_pelvis/pelvis_tilt/speed	/jointset/ground_pelvis/pelvis_tx/speed	/jointset/ground_pelvis/pelvis_ty/speed	/jointset/hip_l/hip_flexion_l/speed	/jointset/hip_l/hip_adduction_l/speed	/jointset/hip_l/hip_rotation_l/speed	/jointset/back/lumbar_extension/speed	/jointset/patellofemoral_l/patellar_flexion_l/speed	/jointset/knee_l/knee_flexion_l/speed	/jointset/knee_l/knee_adduction_l/speed	/jointset/knee_l/knee_rotation_l/speed	/jointset/ankle_l/ankle_angle_l/speed	/jointset/subtalar_l/subtalar_angle_l/speed	/forceset/tau_hip_flexion_l	/forceset/tau_hip_adduction_l	/forceset/tau_hip_rotation_l	/forceset/tau_knee_flexion_l	/forceset/tau_ankle_angle_l	/forceset/tau_subtalar_angle_l	/forceset/tau_lumbar_extension	lambda_cid13_p0	lambda_cid13_p1	lambda_cid13_p2	lambda_cid13_p3	lambda_cid13_p4	lambda_cid13_p5	lambda_cid14_p0	/jointset/ground_pelvis/pelvis_tilt/accel	/jointset/ground_pelvis/pelvis_tx/accel	/jointset/ground_pelvis/pelvis_ty/accel	/jointset/hip_l/hip_flexion_l/accel	/jointset/hip_l/hip_adduction_l/accel	/jointset/hip_l/hip_rotation_l/accel	/jointset/back/lumbar_extension/accel	/jointset/patellofemoral_l/patellar_flexion_l/accel	/jointset/knee_l/knee_flexion_l/accel	/jointset/knee_l/knee_adduction_l/accel	/jointset/knee_l/knee_rotation_l/accel	/jointset/ankle_l/ankle_angle_l/accel	/jointset/subtalar_l/subtalar_angle_l/accel	gamma_cid13_p0	gamma_cid13_p1	gamma_cid13_p2	gamma_cid13_p3	gamma_cid13_p4	gamma_cid13_p5	gamma_cid14_p0
0.5	-0.4121941983929709	-0.06571002914175596	0.7757831257784283	1.184390878656348	-0.3524625962792045	-0.06452300522666968	-0.4083287463396746	0.7150428482653433	0.7150428482653425	-0.05256185227045514	-0.1745278553923214	0.04821148129599569	0.08314315677994955	-1.29442444878044	-0.4041512801532755	-0.5025207757431581	2.878411272086226	0.04360067691489704	0.4349158153236029	-0.2839326113319568	1.353535882207225	1.353535882207206	0.2129223844425541	0.0001879031722123909	-0.128982147424922	0.001645795637073023	-0.166401274919234	-0.00201976091581082	0.005200116086032376	-0.1446418426639262	0.09335798277371256	0.01365807419994085	0.1509671432471063	5.571040006665769	-6.141745310426547	-0.1761246749437805	-7.873185646361573	-435.8375773791141	-70.52292824063119	-14.57001848775605	0.5549434136302617	0.7035744198432899	-0.3830972783796045	-1.748620217130546	0.1061263646351653	-0.3821504337313255	1.625958486764938	-1.068135358074526	-1.068135358074528	-0.4258878212898436	0.07283761824353645	-0.004199094004962585	0.1125277825160183	4.899978346807599e-09	-1.38108313831984e-06	-7.323523525221017e-07	-3.014642098803249e-07	-2.159215936428716e-07	2.005990037188175e-07	-1.589201706640447e-07
0.51	-0.4251080224456504	-0.0697158792055826	0.7707400183224569	1.213082379244566	-0.3520221053145057	-0.06019740568811756	-0.4110879110017572	0.7285225491063985	0.7285225491064011	-0.05045325324201339	-0.1745262676705164	0.04692127862331061	0.08316437736073912	-1.288168112363872	-0.3969779972499159	-0.505984785920447	2.859501153766898	0.04448584573160057	0.4301560502525971	-0.2679073462954872	1.342198030152021	1.342198030152024	0.2087826187132942	0.0001280436227280321	-0.1290600518420876	0.002585892885912826	-0.1732262234971135	-0.001517440775185274	0.004718112671804937	-0.1448072454712548	0.09468505385733704	0.01470156668830385	0.155681339630284	5.865029525868495	-6.513833048679209	-0.2682376635933339	-8.107857197753608	-439.4187449564041	-70.85054234326681	-14.01834876901123	0.6867934867468187	0.7302485549443665	-0.3106966067012888	-2.020384396832323	0.07832444938844858	-0.5301853873681611	1.589756730448383	-1.197519775284121	-1.197519775280807	-0.410579653244587	-0.04576097783689843	-0.009898962572884244	0.08323658527545391	5.157191438793797e-09	-1.289336971119047e-06	-6.85760382160822e-07	-2.891689653704386e-07	-1.971085379615597e-07	2.14077695556534e-07	-1.519601745829165e-07
0.52	-0.437954120187949	-0.07364878777450322	0.7656657420208529	1.241573143298091	-0.3515730401997997	-0.05592086296899223	-0.413687033769803	0.7418826894976933	0.7418826894977002	-0.04838656361176334	-0.1745253511914653	0.04563023433705376	0.08319469609185859	-1.280879186704236	-0.3895629811720724	-0.5087545448696459	2.838263965147633	0.04531550691632431	0.4251044514382724	-0.2519242325246011	1.329623792255183	1.329623792255208	0.2045405048040133	5.365462154461886e-05	-0.1291504701392738	0.003465425703052321	-0.1800511720749932	-0.00101512063456039	0.004236109257581386	-0.1449726482785837	0.09601212494096127	0.01574505917666604	0.1603955360134615	6.158302952170009	-6.885259136516281	-0.361069243480899	-8.338833841826434	-443.0091386846809	-71.18877023399827	-13.47028640364828	0.7614612622436054	0.7519210547400836	-0.2442470327615923	-2.214034277118024	0.09502483823920969	-0.4405171823951557	1.617528233648218	-1.315412526401489	-1.315412526401489	-0.4463574572940571	0.06993172790372616	-0.006701870009055746	0.1004148961759571	-3.625792444012697e-08	-8.979591212748123e-07	-1.140068912841277e-07	-1.96824546869862e-07	-2.604766709519774e-07	2.859518271207195e-07	-1.68732677125335e-07
0.53	-0.4507223815475172	-0.07750624927517145	0.7605672913960307	1.269839991525975	-0.351116250966684	-0.05169396713219381	-0.4161265434361832	0.7551109971994995	0.7551109971995104	-0.04636456537014853	-0.174523638641869	0.04433840717414858	0.08323322523692314	-1.272620077473078	-0.3818804171783801	-0.5108123155971437	2.814723405364361	0.04603866846961804	0.4201669451428464	-0.235990244500486	1.315841847152554	1.315841847152544	0.1998975146553289	0.0002448621874866743	-0.1291886525409316	0.004245639592882472	-0.1865301372925565	-0.0006108583612410686	0.003683199329658874	-0.1459360731608903	0.09870359626013131	0.01642927424956674	0.1648774579596634	6.865801145260795	-7.135130799484374	-0.5167395536978237	-8.966500271082213	-446.7656582860719	-71.36112013475105	-12.92596209883802	0.881060251278494	0.783729675081789	-0.1681111702875587	-2.481439283856554	0.06051957550384524	-0.5366765115570652	1.57945252443639	-1.438935136726053	-1.438935136731337	-0.4676615393707139	-0.01281309267568923	0.001543094270183696	0.06769795388320676	-8.071808172065968e-08	-5.446944754906906e-07	4.543990437046464e-07	-1.047449454583272e-07	-3.233997584416988e-07	3.750092184632041e-07	-1.914853921224361e-07
0.54	-0.4634034669152286	-0.08128542401522319	0.755451949248425	1.297859959665041	-0.3506523185657094	-0.04751970819003796	-0.4184070895347936	0.768195615523373	0.7681956155233874	-0.04438787537916319	-0.1745213196893362	0.04304698209112969	0.08327973118458531	-1.263443988332856	-0.3739056290487677	-0.5121328494263893	2.7888879473841	0.04674414048808755	0.4145770725097903	-0.2201315189706416	1.300885916668627	1.300885916668582	0.195478854678041	0.0001749352088233311	-0.1290700541620163	0.005060786222579111	-0.1930091025101196	-0.0002065960879223164	0.003130289401737311	-0.1468994980431972	0.101395067579301	0.01711348932246674	0.1693593799058657	7.572088932332103	-7.385191449209077	-0.6719218986839584	-9.600791074247029	-450.5466793715357	-71.5683548756775	-12.38569393553113	0.9448572440565055	0.8103658819240788	-0.09679965311116716	-2.673013916515719	0.09148693127436693	-0.5709904499212002	1.602475734794083	-1.55020960266101	-1.550209602661002	-0.4014914230147575	0.01770481898264704	0.02465428610556223	0.1074014441492545	-1.285472209774439e-07	-2.335976299432895e-07	1.0191012998387e-06	-1.295833316658326e-08	-3.858304551646923e-07	4.830778759433813e-07	-2.208545123885479e-07
